PathFileType	4	(X/Y/Z)	Patient4_TMGait_0pt3_02_right_22.trc.trc
DataRate	CameraRate	NumFrames	NumMarkers	Units	OrigDataRate	OrigDataStartFrame	OrigNumFrames
50.541516245487	50.541516245487	5	33	mm	50.541516245487	71	       141
Frame#	Time	Sacral			L.Shoulder			Chest			R.Shoulder			Neck			R.ASIS			L.ASIS			R.Thigh.Superior			R.Thigh.Lateral			R.Thigh.Inferior			R.Patella			L.Thigh.Superior			L.Thigh.Lateral			L.Thigh.Inferior			L.Patella			L.Shank.Superior			L.Shank.Lateral			L.Shank.Inferior			R.Shank.Superior			R.Shank.Lateral			R.Shank.Inferior			R.Heel			R.Midfoot.Superior			R.Midfoot.Lateral			R.Toe			L.Heel			L.Midfoot.Lateral			L.Midfoot.Superior			L.Toe			L.Elbow			L.Wrist			R.Elbow			R.Wrist			
		X1	Y1	Z1	X2	Y2	Z2	X3	Y3	Z3	X4	Y4	Z4	X5	Y5	Z5	X6	Y6	Z6	X7	Y7	Z7	X8	Y8	Z8	X9	Y9	Z9	X10	Y10	Z10	X11	Y11	Z11	X12	Y12	Z12	X13	Y13	Z13	X14	Y14	Z14	X15	Y15	Z15	X16	Y16	Z16	X17	Y17	Z17	X18	Y18	Z18	X19	Y19	Z19	X20	Y20	Z20	X21	Y21	Z21	X22	Y22	Z22	X23	Y23	Z23	X24	Y24	Z24	X25	Y25	Z25	X26	Y26	Z26	X27	Y27	Z27	X28	Y28	Z28	X29	Y29	Z29	X30	Y30	Z30	X31	Y31	Z31	X32	Y32	Z32	X33	Y33	Z33	

71	43.515000000000	770.613113185898	1003.849730262060	549.347677960302	903.292388109593	1425.016890053958	331.652549193835	1040.956091055725	1357.966412551140	465.269035999356	1003.116592891256	1436.426212526779	651.800774318105	926.357294333677	1491.017183508714	485.047560675168	1013.819277361672	931.759791950011	622.339173689304	953.800035945820	958.676349388863	354.158056594039	1013.011593965779	721.877105112594	585.071331017506	918.996760274525	621.049564355156	651.348920528249	972.343024331229	562.254567700471	561.633655983600	956.203419277811	476.158733580480	563.919930265573	1025.342121366946	761.884839916416	376.848965742588	957.019325177290	638.194040323650	305.810840105317	1057.273687981098	571.573386007830	362.259362161475	1078.291786700932	508.961702325547	359.495100029644	1061.260034060371	439.674134464047	347.830515531390	994.729216761814	311.424831981438	294.151507481536	1082.129507768118	210.901820632341	346.272181727326	915.800304955274	391.854154205348	569.818694608875	836.741816180368	294.955265390777	633.551066726573	860.103678893509	200.134448698472	561.746020390613	704.694884563499	43.621553291160	531.313320008694	878.989510130647	96.056217034404	564.574995121418	789.227277715970	36.975655222628	604.126703390498	997.539536688465	40.719279954556	590.280015926858	993.965552340625	37.513073064487	380.231602513564	1068.999666075141	39.560710556640	301.138624309098	1143.584298887157	111.892066360289	324.813422660354	1275.567253693203	74.957748155826	299.662240921947	747.232568500554	1101.641236801855	266.047741043727	718.403882370958	843.075572864721	287.357925901036	1176.329916894183	1143.165975482149	763.655052308180	1425.136682961336	1176.622381906398	708.409732470255	
72	43.534785714286	771.300330592914	1003.429779321893	547.414891202072	902.486980425800	1424.081506572470	328.311325261593	1040.954454787849	1357.386489857165	461.318011274868	1003.846091321891	1436.017397952501	647.909503901196	926.305418551554	1490.332676069540	481.496965100451	1014.741560557054	931.108011039597	619.628581053767	953.592333710728	957.676205349547	351.696626824243	1011.443433210269	720.639123654502	583.223245751707	915.903538046111	621.025044118663	650.019153446855	967.954478673198	561.308184433108	560.472572820782	950.695641718208	475.761241310148	562.884821646082	1024.537951309368	760.187817943705	374.255527959655	953.982342577589	636.546060101544	304.599525700068	1054.402674950705	570.012602980612	360.349355112220	1074.444055618433	507.219012225224	358.061946143821	1057.578609284162	437.643411391299	346.553858860180	990.170698191854	309.543918743423	294.010348829739	1077.340566364127	208.964419264610	346.177788262493	910.199670545100	391.770419169446	569.075896800499	831.044812500555	295.190610740865	633.254915847343	854.129188978632	200.115816939049	561.564170593502	698.641524992511	43.553842760133	531.374544624845	872.860632319552	95.936074143511	564.453054098574	783.195043794911	36.911512396245	604.186134508441	991.526707358112	40.748493985388	590.241714692945	987.739047529628	37.409725017717	381.100806381561	1062.407532680129	38.531064137359	301.579008516560	1138.240031402760	109.411063126396	325.270955037986	1269.558011939251	70.326786697249	299.430811748921	747.382613053859	1100.135528225866	263.926047828002	721.769893078226	840.889094625103	284.160314350031	1180.296776926205	1145.043620714374	758.871214232214	1427.756069979327	1184.668404106755	702.382750592865	
73	43.554571428571	771.928145054212	1003.099721625822	545.262865763788	902.004980091988	1423.080137332546	324.743872544496	1041.182833630922	1356.734280477519	457.226969323275	1004.763838442074	1435.640658809230	643.831109075729	926.506215073118	1489.652013277129	477.743737227110	1015.595692380949	930.438135097113	616.795146574747	953.418889501401	956.785216068312	349.109559472580	1010.181897453831	719.475510097060	581.203372922839	913.331665592011	620.921577245576	648.424435230401	964.298110694386	560.404594138863	559.052072717534	946.043528026020	475.248030562936	561.627093875101	1024.063810037878	758.936966606548	371.647706163795	951.757273453830	635.279701034523	303.216221136382	1052.372912838066	568.963275074310	358.382101152993	1071.375999020805	505.793477077359	356.554632215016	1054.637289209533	435.851964868887	345.180257804372	986.136773103000	308.032182077099	293.558905539339	1072.741544464682	207.146506574878	345.908979913329	905.300750767350	391.609084531600	568.145397722547	825.842345103407	295.503168296508	632.782379501716	848.442229314474	200.092215271915	561.281482948254	692.643905263369	43.677909495405	531.433681207810	866.783299057629	95.809147376942	564.269826035421	777.214476826196	36.931684511869	604.224595517247	985.549060310719	40.690836239895	590.221203094314	981.248126772516	37.432899216916	381.692308912510	1055.634793009852	37.558035223792	301.809587691332	1132.768413912056	106.969090215512	325.579282596453	1263.426881411202	65.678872992399	299.203360540526	748.732103336069	1098.063826342980	261.277490718390	727.502364405787	838.076971658561	280.035530677194	1183.777561336499	1146.530044627029	754.057099791897	1430.047275762375	1190.861265555988	696.555401458551	
74	43.574357142857	772.459621364665	1002.920444074008	542.887392242540	901.847419987464	1422.089510301797	320.999782360580	1041.639269274730	1356.049094543634	453.032889008891	1005.892586954115	1435.332495898324	639.607578416358	926.967951502721	1489.028859575156	473.829976471720	1016.329003877016	929.788394385794	613.833675115638	953.253796811426	956.077024066510	346.379165373678	1009.169869196195	718.429984142230	578.972870033372	911.269880332064	620.766600443754	646.554119548100	961.371413708594	559.573915017511	557.351017592592	942.241533826411	474.644794042229	560.134823221990	1023.912118148727	758.210808022346	369.035416340623	950.389632250115	634.448581347031	301.651748500826	1051.197122367214	568.444136202265	356.372850897130	1069.111306374028	504.718843069683	355.015048157091	1052.463980727231	434.361113238201	343.763636487014	982.754416077128	306.937698325244	292.787586030248	1068.447857174099	205.537058165874	345.518795734529	901.109646861848	391.382450411883	567.024417746814	821.140597355102	295.911444048710	632.126428637752	843.059167661686	200.087492435619	560.897528791465	686.710994873749	44.036033129351	531.493289291305	860.785153754582	95.698648118624	564.045077967105	771.293323400696	37.064445344609	604.244877570259	979.609655380954	40.543896025460	590.219725633125	974.746055615026	37.543161204122	382.010294491636	1048.947739832789	36.711139408634	301.855468596603	1127.312923765029	104.744765758561	325.771476264313	1257.367560370088	61.406189650429	299.035355458130	751.122050266267	1095.595381223173	258.145885786544	735.449859183752	834.899369567433	274.991292778190	1186.838137261987	1147.672799376697	749.239213345810	1432.153589466974	1195.283299165962	690.924847090046	
75	43.594142857143	772.873961671616	1002.926355854871	540.273347008728	902.005264660061	1421.178014493136	317.125696999552	1042.306553638658	1355.370996805423	448.778979490401	1007.215837550683	1435.114906460041	635.288163482658	927.674252610224	1488.504916748502	469.796259779229	1016.905969794208	929.195240482748	610.746273076162	953.099955982316	955.593260476843	343.492008539808	1008.342824471956	717.535788284488	576.522235671252	909.664462341577	620.596892096565	644.424149276622	959.120677226409	558.840944885837	555.384966236792	939.224876466666	473.985293551697	558.426651871819	1024.067613765452	758.018264891997	366.432563271116	949.856541549794	634.048031496499	299.919301432415	1050.820442419012	568.405433001535	354.351069718497	1067.617343746338	503.973961551967	353.490900710045	1051.009890339686	433.179197386267	342.360571606963	980.044889878327	306.260075759610	291.734639282801	1064.480263072729	204.177008041442	345.074702722481	897.578852488948	391.111367807918	565.730667587177	816.906519321081	296.433458257587	631.297118621096	837.974928596352	200.129991371355	560.424192086465	680.849360738164	44.665235848018	531.555715482208	854.892720960205	95.633191745320	563.809812238934	765.435930711117	37.337438527742	604.251786474038	973.708657883974	40.313761994447	590.236413843136	968.375546289701	37.700466386293	382.096990744832	1042.482319392973	36.036230666554	301.761015329286	1121.923296935746	102.855690834596	325.890051974710	1251.462000102123	57.776906531255	298.949086966697	754.377244116397	1092.903011807995	254.581447508781	745.429026703775	831.631672001223	269.057859490629	1189.528570207356	1148.521376525466	744.440367756062	1434.177266397009	1198.040291555693	685.497805767631	
